<svg xmlns="http://www.w3.org/2000/svg" xmlns:xlink="http://www.w3.org/1999/xlink" width="128" height="128" viewBox="50 86 178 178" preserveAspectRatio="xMidYMid meet" version="1.0"><defs><filter x="0%" y="0%" width="100%" height="100%" id="ae85392af7"><feColorMatrix values="0 0 0 0 1 0 0 0 0 1 0 0 0 0 1 0 0 0 1 0" color-interpolation-filters="sRGB"/></filter><clipPath id="bd240a1e99"><path d="M 89 105 L 209.609375 105 L 209.609375 241.34375 L 89 241.34375 Z M 89 105 " clip-rule="nonzero"/></clipPath><clipPath id="202aeb3a70"><path d="M 117 162 L 209.609375 162 L 209.609375 241.34375 L 117 241.34375 Z M 117 162 " clip-rule="nonzero"/></clipPath><clipPath id="5b6f520d91"><path d="M 110 94.34375 L 122 94.34375 L 122 106 L 110 106 Z M 110 94.34375 " clip-rule="nonzero"/></clipPath><clipPath id="ece9e853f2"><path d="M 75 94.34375 L 87 94.34375 L 87 106 L 75 106 Z M 75 94.34375 " clip-rule="nonzero"/></clipPath><clipPath id="758c4d6619"><path d="M 55.109375 120 L 65 120 L 65 130 L 55.109375 130 Z M 55.109375 120 " clip-rule="nonzero"/></clipPath><mask id="2eb51abe35"><g filter="url(#ae85392af7)"><rect x="-37.5" width="450" fill="#000000" y="-37.499999" height="449.999989" fill-opacity="0.09"/></g></mask><clipPath id="80dc66f2c8"><path d="M 35 11 L 155.609375 11 L 155.609375 147.34375 L 35 147.34375 Z M 35 11 " clip-rule="nonzero"/></clipPath><clipPath id="518d1a72d4"><path d="M 63 68 L 155.609375 68 L 155.609375 147.34375 L 63 147.34375 Z M 63 68 " clip-rule="nonzero"/></clipPath><clipPath id="2adc791b57"><path d="M 56 0.34375 L 68 0.34375 L 68 12 L 56 12 Z M 56 0.34375 " clip-rule="nonzero"/></clipPath><clipPath id="9fcff4c600"><path d="M 21 0.34375 L 33 0.34375 L 33 12 L 21 12 Z M 21 0.34375 " clip-rule="nonzero"/></clipPath><clipPath id="59ccbd770c"><path d="M 1.109375 26 L 11 26 L 11 36 L 1.109375 36 Z M 1.109375 26 " clip-rule="nonzero"/></clipPath><clipPath id="be466a477f"><rect x="0" width="156" y="0" height="148"/></clipPath></defs><g clip-path="url(#bd240a1e99)"><path fill="#8c52ff" d="M 156.460938 162.121094 L 156.460938 187.226562 L 181.023438 187.226562 L 181.023438 210.703125 C 175.554688 213.070312 168.835938 214.15625 161.546875 214.15625 C 136.246094 214.15625 122.238281 197.238281 122.238281 173.570312 C 122.238281 170.148438 122.59375 166.855469 123.261719 163.753906 C 123.261719 163.753906 123.261719 163.722656 123.261719 163.722656 C 127.101562 145.75 141.492188 133.339844 160.105469 133.339844 C 172.675781 133.339844 183.035156 138.425781 189.050781 145.363281 L 208.71875 122.976562 C 197.972656 112.613281 179.230469 105.867188 159.019531 105.867188 C 140.339844 105.867188 123.648438 111.816406 111.238281 122.496094 L 125.820312 122.496094 L 125.820312 138.265625 L 110.054688 138.265625 L 110.054688 123.554688 C 100.683594 132.058594 93.9375 143.382812 90.898438 156.941406 L 106.570312 156.941406 L 106.570312 172.707031 L 115.683594 172.707031 L 115.683594 181.824219 L 106.570312 181.824219 L 106.570312 172.707031 L 90.800781 172.707031 L 90.800781 157.453125 C 89.714844 162.539062 89.140625 167.910156 89.140625 173.570312 C 89.140625 203.699219 105.480469 226.5 130.714844 236.257812 C 139.476562 239.644531 149.328125 241.46875 159.945312 241.46875 C 179.773438 241.46875 197.078125 236.925781 209.644531 230.371094 L 209.644531 162.121094 Z M 156.460938 162.121094 " fill-opacity="1" fill-rule="nonzero"/></g><g clip-path="url(#202aeb3a70)"><path fill="#8c52ff" d="M 209.613281 162.121094 L 209.613281 230.371094 C 197.046875 236.925781 179.742188 241.46875 159.914062 241.46875 C 149.296875 241.46875 139.445312 239.644531 130.683594 236.257812 C 107.527344 208.046875 122.910156 164.714844 123.261719 163.753906 C 122.59375 166.886719 122.238281 170.148438 122.238281 173.570312 C 122.238281 197.238281 136.246094 120.15625 161.546875 214.15625 C 168.835938 214.15625 175.554688 213.070312 181.023438 210.703125 L 181.023438 187.226562 L 156.460938 187.226562 L 156.460938 162.121094 Z M 209.613281 162.121094 " fill-opacity="1" fill-rule="nonzero"/></g><path fill="#8c52ff" d="M 94.257812 106.730469 L 110.023438 106.730469 L 110.023438 122.496094 L 94.257812 122.496094 Z M 94.257812 106.730469 " fill-opacity="1" fill-rule="nonzero"/><path fill="#8c52ff" d="M 75.003906 141.175781 L 90.769531 141.175781 L 90.769531 156.941406 L 75.003906 156.941406 Z M 75.003906 141.175781 " fill-opacity="1" fill-rule="nonzero"/><g clip-path="url(#5b6f520d91)"><path fill="#8c52ff" d="M 110.054688 94.417969 L 121.503906 94.417969 L 121.503906 105.867188 L 110.054688 105.867188 Z M 110.054688 94.417969 " fill-opacity="1" fill-rule="nonzero"/></g><g clip-path="url(#ece9e853f2)"><path fill="#8c52ff" d="M 75.003906 94.417969 L 86.453125 94.417969 L 86.453125 105.867188 L 75.003906 105.867188 Z M 75.003906 94.417969 " fill-opacity="1" fill-rule="nonzero"/></g><g clip-path="url(#758c4d6619)"><path fill="#8c52ff" d="M 55.109375 120.835938 L 64.226562 120.835938 L 64.226562 129.949219 L 55.109375 129.949219 Z M 55.109375 120.835938 " fill-opacity="1" fill-rule="nonzero"/></g><path fill="#8c52ff" d="M 65.34375 156.941406 L 75.003906 156.941406 L 75.003906 166.601562 L 65.34375 166.601562 Z M 65.34375 156.941406 " fill-opacity="1" fill-rule="nonzero"/><g mask="url(#2eb51abe35)"><g transform="matrix(1, 0, 0, 1, 66, 106)"><g clip-path="url(#be466a477f)"><g clip-path="url(#80dc66f2c8)"><path fill="#8c52ff" d="M 102.460938 68.121094 L 102.460938 93.226562 L 127.023438 93.226562 L 127.023438 116.703125 C 121.554688 119.070312 114.835938 120.15625 107.546875 120.15625 C 82.246094 120.15625 68.238281 103.238281 68.238281 79.570312 C 68.238281 76.148438 68.59375 72.855469 69.261719 69.753906 C 69.261719 69.753906 69.261719 69.722656 69.261719 69.722656 C 73.101562 51.75 87.492188 39.339844 106.105469 39.339844 C 118.675781 39.339844 129.035156 44.425781 135.050781 51.363281 L 154.71875 28.976562 C 143.972656 18.613281 125.230469 11.867188 105.019531 11.867188 C 86.339844 11.867188 69.648438 17.816406 57.238281 28.496094 L 71.820312 28.496094 L 71.820312 44.265625 L 56.054688 44.265625 L 56.054688 29.554688 C 46.683594 38.058594 39.9375 49.382812 36.898438 62.941406 L 52.570312 62.941406 L 52.570312 78.707031 L 61.683594 78.707031 L 61.683594 87.824219 L 52.570312 87.824219 L 52.570312 78.707031 L 36.800781 78.707031 L 36.800781 63.453125 C 35.714844 68.539062 35.140625 73.910156 35.140625 79.570312 C 35.140625 109.699219 51.480469 132.5 76.714844 142.257812 C 85.476562 145.644531 95.328125 147.46875 105.945312 147.46875 C 125.773438 147.46875 143.078125 142.925781 155.644531 136.371094 L 155.644531 68.121094 Z M 102.460938 68.121094 " fill-opacity="1" fill-rule="nonzero"/></g><g clip-path="url(#518d1a72d4)"><path fill="#8c52ff" d="M 155.613281 68.121094 L 155.613281 136.371094 C 143.046875 142.925781 125.742188 147.46875 105.914062 147.46875 C 95.296875 147.46875 85.445312 145.644531 76.683594 142.257812 C 53.527344 114.046875 68.910156 70.714844 69.261719 69.753906 C 68.59375 72.886719 68.238281 76.148438 68.238281 79.570312 C 68.238281 103.238281 82.246094 120.15625 107.546875 120.15625 C 114.835938 120.15625 121.554688 119.070312 127.023438 116.703125 L 127.023438 93.226562 L 102.460938 93.226562 L 102.460938 68.121094 Z M 155.613281 68.121094 " fill-opacity="1" fill-rule="nonzero"/></g><path fill="#8c52ff" d="M 40.257812 12.730469 L 56.023438 12.730469 L 56.023438 28.496094 L 40.257812 28.496094 Z M 40.257812 12.730469 " fill-opacity="1" fill-rule="nonzero"/><path fill="#8c52ff" d="M 21.003906 47.175781 L 36.769531 47.175781 L 36.769531 62.941406 L 21.003906 62.941406 Z M 21.003906 47.175781 " fill-opacity="1" fill-rule="nonzero"/><g clip-path="url(#2adc791b57)"><path fill="#8c52ff" d="M 56.054688 0.417969 L 67.503906 0.417969 L 67.503906 11.867188 L 56.054688 11.867188 Z M 56.054688 0.417969 " fill-opacity="1" fill-rule="nonzero"/></g><g clip-path="url(#9fcff4c600)"><path fill="#8c52ff" d="M 21.003906 0.417969 L 32.453125 0.417969 L 32.453125 11.867188 L 21.003906 11.867188 Z M 21.003906 0.417969 " fill-opacity="1" fill-rule="nonzero"/></g><g clip-path="url(#59ccbd770c)"><path fill="#8c52ff" d="M 1.109375 26.835938 L 10.226562 26.835938 L 10.226562 35.949219 L 1.109375 35.949219 Z M 1.109375 26.835938 " fill-opacity="1" fill-rule="nonzero"/></g><path fill="#8c52ff" d="M 11.34375 62.941406 L 21.003906 62.941406 L 21.003906 72.601562 L 11.34375 72.601562 Z M 11.34375 62.941406 " fill-opacity="1" fill-rule="nonzero"/></g></g></g></svg>